<mxfile host="app.diagrams.net" modified="2024-02-29T10:18:19.465Z" agent="Mozilla/5.0 (Windows NT 10.0; Win64; x64) AppleWebKit/537.36 (KHTML, like Gecko) Chrome/122.0.0.0 Safari/537.36 Edg/122.0.0.0" etag="E_rR-VcG4oFL0OrycuVP" version="23.1.8" type="device">
  <diagram name="Page-1" id="rxVrn3nylQbmWXn3092q">
    <mxGraphModel dx="786" dy="518" grid="1" gridSize="10" guides="1" tooltips="1" connect="1" arrows="1" fold="1" page="1" pageScale="1" pageWidth="850" pageHeight="1100" math="0" shadow="0">
      <root>
        <mxCell id="0" />
        <mxCell id="1" parent="0" />
        <mxCell id="w-mqiDZ_6ozevQtHaEfB-5" value="" style="edgeStyle=orthogonalEdgeStyle;rounded=0;orthogonalLoop=1;jettySize=auto;html=1;" edge="1" parent="1" source="w-mqiDZ_6ozevQtHaEfB-1" target="w-mqiDZ_6ozevQtHaEfB-4">
          <mxGeometry relative="1" as="geometry" />
        </mxCell>
        <mxCell id="w-mqiDZ_6ozevQtHaEfB-1" value="Ultrasonic Sensor (HC-SR04)" style="rounded=0;whiteSpace=wrap;html=1;" vertex="1" parent="1">
          <mxGeometry x="300" y="80" width="170" height="90" as="geometry" />
        </mxCell>
        <mxCell id="w-mqiDZ_6ozevQtHaEfB-12" style="edgeStyle=orthogonalEdgeStyle;rounded=0;orthogonalLoop=1;jettySize=auto;html=1;entryX=0.5;entryY=0;entryDx=0;entryDy=0;" edge="1" parent="1" source="w-mqiDZ_6ozevQtHaEfB-4" target="w-mqiDZ_6ozevQtHaEfB-10">
          <mxGeometry relative="1" as="geometry" />
        </mxCell>
        <mxCell id="w-mqiDZ_6ozevQtHaEfB-13" style="edgeStyle=orthogonalEdgeStyle;rounded=0;orthogonalLoop=1;jettySize=auto;html=1;entryX=0.5;entryY=0;entryDx=0;entryDy=0;" edge="1" parent="1" source="w-mqiDZ_6ozevQtHaEfB-4" target="w-mqiDZ_6ozevQtHaEfB-8">
          <mxGeometry relative="1" as="geometry" />
        </mxCell>
        <mxCell id="w-mqiDZ_6ozevQtHaEfB-4" value="Arduino Microcontroller" style="rounded=0;whiteSpace=wrap;html=1;" vertex="1" parent="1">
          <mxGeometry x="300" y="220" width="170" height="90" as="geometry" />
        </mxCell>
        <mxCell id="w-mqiDZ_6ozevQtHaEfB-8" value="Power Supply (9V Battery)" style="rounded=0;whiteSpace=wrap;html=1;" vertex="1" parent="1">
          <mxGeometry x="400" y="390" width="170" height="90" as="geometry" />
        </mxCell>
        <mxCell id="w-mqiDZ_6ozevQtHaEfB-10" value="Servo Motor (SG-90)" style="rounded=0;whiteSpace=wrap;html=1;" vertex="1" parent="1">
          <mxGeometry x="190" y="390" width="170" height="90" as="geometry" />
        </mxCell>
      </root>
    </mxGraphModel>
  </diagram>
</mxfile>
